<svg width="88" height="88" viewBox="0 0 88 88" fill="none" xmlns="http://www.w3.org/2000/svg">
<g clip-path="url(#clip0_4372_522)">
<path d="M40.0786 2.60658C39.1579 2.76003 37.3846 3.39092 36.498 3.90244C35.9865 4.17525 34.9464 5.04485 34.1961 5.79508C32.1671 7.84117 31.1099 10.2112 31.0076 12.9053C30.9394 14.3375 31.2463 14.7638 32.3035 14.7638H33.0026L33.0196 16.3325C33.0537 18.8901 33.8722 20.8339 35.6625 22.6242C36.5832 23.5449 38.7316 24.8238 39.3796 24.8238C39.9763 24.8238 40.1127 25.0795 39.9252 25.8127C39.8058 26.2049 39.6694 27.4155 39.5842 28.5238L39.4307 30.5358L38.51 31.3542C38.0155 31.8146 37.2994 32.4455 36.9242 32.7524L36.2422 33.315L32.3205 33.622L28.3989 33.9118L23.4371 32.2749C20.709 31.3713 18.3048 30.621 18.1002 30.621C17.4523 30.621 16.702 31.1325 16.4463 31.7293C16.2587 32.1726 16.2075 33.2127 16.2075 36.1455C16.2075 40.7151 16.2075 40.698 17.8956 40.8174C18.4583 40.8515 18.9357 40.9367 18.9357 41.0049C18.9357 41.0561 18.4412 42.8294 17.8274 44.9266C17.2135 47.0409 16.7191 49.0018 16.7191 49.3087C16.7191 49.7008 16.8555 49.9566 17.1624 50.2124C17.7421 50.6727 18.1343 50.6557 18.6629 50.1783C19.0039 49.8884 19.3108 49.0018 20.2145 45.8815C20.8283 43.716 21.4251 41.704 21.5103 41.3971L21.6979 40.8515H23.4712C24.4431 40.8515 25.2445 40.8856 25.2445 40.9197C25.2445 40.9708 24.9717 41.9427 24.6477 43.0851C22.4481 50.6898 22.397 58.0216 24.4772 65.2341C25.0569 67.2632 26.5915 71.5088 27.0518 72.4295C27.1883 72.6853 27.2906 72.924 27.2906 72.9922C27.2906 73.0434 26.779 73.0775 26.1311 73.0775H24.9887L20.385 67.9281C17.8444 65.0977 15.7131 62.6935 15.6449 62.5571C15.5596 62.4207 15.9177 60.8862 16.5315 58.7037C17.1112 56.7087 17.5716 54.9866 17.5716 54.8672C17.5716 54.458 16.7532 53.8101 16.2417 53.8101C15.4062 53.8101 15.1163 54.3557 14.1615 57.7318C13.667 59.4709 13.2066 61.0226 13.1043 61.176C12.985 61.4147 12.7462 61.4829 12.0472 61.4829C10.7342 61.4829 8.65405 62.0627 7.00013 62.8811C5.82362 63.4608 5.2439 63.9042 3.91394 65.2341C2.54987 66.5982 2.1577 67.1097 1.50978 68.4226C1.06645 69.2751 0.623134 70.4175 0.503779 70.9461C0.31622 71.8157 0.31622 71.9351 0.640185 72.3613C0.895947 72.7024 1.25401 72.8899 2.03835 73.0604L3.07845 73.2991V74.1687C3.0955 78.6019 6.23284 82.643 10.4955 83.7342C14.8094 84.8255 19.6177 82.66 21.5444 78.7383C22.0048 77.8346 22.1412 77.6812 22.4311 77.7664C22.6186 77.8176 23.1984 77.9028 23.7099 77.971C24.5454 78.0392 24.6818 78.0051 25.0228 77.6641C25.2104 77.4425 25.4491 76.9139 25.5343 76.4876L25.6878 75.7203H39.0385H52.4064L52.628 76.6581C53.3783 79.6591 55.629 82.4554 58.323 83.8024C61.5626 85.3881 64.7852 85.4052 67.9737 83.8365C70.8724 82.3872 72.9867 79.7102 73.8392 76.3512L74.0268 75.6351H75.0157C75.8682 75.6351 76.0728 75.5669 76.465 75.1918C76.8401 74.7996 76.9083 74.595 76.9083 73.6913C76.9083 73.1286 76.789 72.1567 76.6696 71.5429C76.5162 70.8097 76.4821 70.1447 76.5673 69.5821C77.1982 65.6604 76.7378 61.4147 75.3908 58.4138L75.0498 57.6465L75.5443 57.135C76.3798 56.2654 76.5673 55.5834 76.5673 53.3156V51.2695L80.4549 51.2184L84.3254 51.1672L85.2632 50.6386C86.2863 50.0589 87.19 48.9165 87.4798 47.8253C87.5992 47.399 87.6503 44.2446 87.6162 38.7713C87.5651 30.4676 87.5651 30.3482 87.19 29.6662C86.7125 28.7625 85.9282 27.9781 85.0245 27.5007C84.3254 27.1256 84.2743 27.1256 75.6295 27.1256H66.9336L66.0129 27.6371C65.058 28.1657 64.2055 29.1376 63.8304 30.1606C63.694 30.5528 63.6258 33.2639 63.6258 39.692L63.6087 48.6948H60.8124H57.999L58.1695 48.1492C58.2548 47.8423 58.323 46.3589 58.323 44.8584C58.323 35.3782 55.6119 27.5007 50.8377 23.0675C49.61 21.9422 49.593 21.9251 49.8658 21.5329C51.5197 19.2822 52.2188 17.5942 52.5428 15.1048C52.7474 13.3656 52.611 11.8652 52.0824 10.1601C50.94 6.49416 47.7003 3.51028 44.0515 2.74299C42.9602 2.50428 41.0505 2.43607 40.0786 2.60658ZM43.7105 5.30061C47.0524 6.1702 49.5077 8.98357 49.9851 12.4619C50.2239 14.167 49.8999 16.2984 49.1497 17.8841C48.587 19.1117 47.0865 20.8168 46.0805 21.3795L45.3814 21.7717L45.3303 17.9693C45.2791 13.7066 45.1768 13.3315 44.0003 12.6324C43.4376 12.3085 43.0625 12.2914 38.4929 12.2403L33.5993 12.1891L33.7016 11.7288C34.827 7.03979 39.3114 4.1582 43.7105 5.30061ZM42.7215 18.6855V22.5219L41.528 22.5048C38.7828 22.4878 36.4639 20.544 35.7136 17.6795C35.4749 16.6905 35.492 15.3265 35.7648 14.8831C35.7989 14.8149 37.3846 14.7808 39.2773 14.7979L42.7215 14.849V18.6855ZM49.5418 25.4205C52.9861 28.8307 55.1686 34.6621 55.6972 41.8404L55.8165 43.4091L49.951 43.375L44.1026 43.3239L43.6423 41.6529C43.3865 40.7321 43.1307 39.692 43.0796 39.351L42.9773 38.7201L45.0063 37.3902C48.3142 35.2418 49.2179 34.0823 49.1838 31.9851C49.1497 28.9159 46.1999 26.8528 43.233 27.8588C42.6704 28.0463 42.1929 28.1828 42.1588 28.1487C42.0906 28.0805 42.6192 25.2841 42.7215 25.1989C42.7556 25.1648 43.2671 25.0454 43.881 24.909C44.4948 24.7896 45.5178 24.4486 46.1487 24.1758C47.2741 23.7154 47.3423 23.6984 47.8368 23.9542C48.1096 24.1076 48.8769 24.7556 49.5418 25.4205ZM84.4448 30.2459C84.9904 30.7915 85.0075 30.8427 85.0586 32.4966L85.1268 34.2017H75.6466H66.1663V32.6501C66.1663 31.4906 66.2345 30.9791 66.4562 30.604C67.053 29.598 67.0018 29.598 75.8341 29.6491L83.8992 29.6832L84.4448 30.2459ZM46.0635 30.7233C46.9672 31.5929 46.8308 32.7353 45.6884 33.7925C45.3644 34.0823 43.7275 35.2077 42.0224 36.2989L38.9533 38.2939H36.4468H33.9404V37.1856C33.9404 36.5717 33.9915 36.0773 34.0768 36.0773C34.145 36.0773 34.9123 35.992 35.7818 35.9068L37.3676 35.7533L40.215 33.298C41.7837 31.951 43.3353 30.6722 43.6593 30.4676C44.4436 29.9731 45.3814 30.0754 46.0635 30.7233ZM22.2435 34.5427C23.9145 35.1054 25.3127 35.5828 25.3638 35.6169C25.3979 35.651 25.2956 35.9579 25.1592 36.2989C25.0228 36.6399 24.9034 37.2367 24.9034 37.6118V38.2939H21.8343H18.7652V35.9068C18.7652 34.0823 18.8163 33.5197 18.9868 33.5197C19.1062 33.5197 20.5725 33.98 22.2435 34.5427ZM31.2975 37.2708V38.2086H29.5242C27.5804 38.2086 27.3076 38.0722 27.5122 37.2367C27.6486 36.6911 27.9214 36.5717 29.4219 36.4183C31.3486 36.2137 31.2975 36.1966 31.2975 37.2708ZM85.0927 38.1234V39.4874H75.6295H66.1663V38.1234V36.7593H75.6295H85.0927V38.1234ZM41.1187 42.028L41.545 43.7331L40.1468 44.4151C37.7256 45.6257 36.0717 47.8423 35.2874 50.9626C34.9805 52.1562 34.9123 53.0599 34.8441 57.0668L34.7588 61.7728L33.8551 62.1479C32.0648 62.8811 30.9565 64.2963 30.5132 66.3936L30.3256 67.2973L29.0468 67.2461L27.768 67.195L27.1883 65.3194C26.0459 61.5852 25.5855 58.482 25.5855 54.5262C25.5855 50.3829 26.1823 46.6147 27.4611 42.5054L27.9896 40.8515H33.821C38.5611 40.8344 39.7376 40.8003 40.0786 40.5957C40.3174 40.4593 40.539 40.357 40.5902 40.34C40.6413 40.34 40.88 41.1073 41.1187 42.028ZM85.0586 44.7732L85.0075 47.5013L84.4448 48.0469L83.8992 48.6096L75.0328 48.6607L66.1663 48.7119V45.3699V42.045H75.6466H85.1098L85.0586 44.7732ZM55.7654 46.6147C55.7654 47.6206 55.2879 48.9847 54.7253 49.6326C53.7363 50.7409 52.8156 50.9456 48.263 51.0649C44.4777 51.1672 44.222 51.1843 43.6252 51.5594C43.2501 51.7981 42.8409 52.2585 42.6022 52.7529C42.227 53.5032 42.21 53.776 42.1588 57.5954L42.1077 61.6534H39.7206H37.3505V58.0046C37.3505 55.9926 37.4358 53.7589 37.5381 53.0428C38.0496 49.3428 39.5671 47.1432 42.1759 46.3248C43.1478 46.0179 43.7616 45.9838 49.5077 45.9838L55.7654 45.9667V46.6147ZM74.0097 53.1792C74.0097 54.458 73.9415 55.1741 73.8051 55.3106C73.6516 55.464 71.9295 55.5152 67.0871 55.5152C62.9778 55.5152 60.3861 55.5834 60.0963 55.6857C59.1585 56.0437 58.9198 56.8451 59.5336 57.6295L59.8746 58.0728H66.0981H72.3046L72.6456 58.6184C73.4641 59.9654 74.0609 62.182 74.2655 64.6373L74.3848 66.0014L73.43 64.9442C71.6396 62.9664 69.065 61.3806 66.5926 60.7327C65.0921 60.3235 62.5004 60.2041 60.9318 60.4599C54.8105 61.4488 50.275 66.0696 49.2008 72.4295L49.0985 73.0775H39.5842H30.0698L29.456 71.5429C29.115 70.7074 28.8251 69.9742 28.8251 69.9231C28.8251 69.8719 31.9795 69.8378 35.8159 69.8378C43.4376 69.8378 43.6764 69.8037 44.2902 68.883C44.563 68.4567 44.5971 67.894 44.6483 63.2392L44.6994 58.0728H50.0534C55.3902 58.0728 55.4073 58.0728 55.6631 57.6977C56.0552 57.152 56.0041 56.3166 55.5778 55.9244C55.2368 55.6175 54.8446 55.6004 49.951 55.5493L44.6824 55.4981V54.8502C44.6824 53.6737 44.6824 53.6737 48.7745 53.5884C50.7865 53.5373 52.7815 53.4179 53.1907 53.2986C54.2649 53.0257 55.6801 52.3096 56.2087 51.7469L56.6861 51.2525H65.3479H74.0097V53.1792ZM65.3991 63.1028C66.8654 63.4097 69.0309 64.4327 70.2074 65.3876C71.2475 66.2231 72.4751 67.8088 73.1913 69.2069C73.6005 70.0424 74.3507 72.4295 74.3507 72.9411C74.3507 73.0093 69.2525 73.0775 63.029 73.0775H51.7243L51.8778 72.1908C52.4916 68.7977 54.9128 65.6092 58.0331 64.0576C60.3691 62.8982 62.8926 62.5742 65.3991 63.1028ZM18.2877 69.4286C20.9477 72.3784 23.1472 74.919 23.1813 75.0724C23.2154 75.26 23.1472 75.3111 22.9256 75.26C22.738 75.2088 18.3048 74.1858 13.0532 72.9922C7.80151 71.7816 3.45356 70.7586 3.36831 70.6904C3.07845 70.4516 4.39136 68.3544 5.63606 67.0926C7.5628 65.1148 9.88171 64.0747 12.32 64.0576L13.4624 64.0406L18.2877 69.4286ZM42.1247 65.7456V67.2802H37.5381H32.9514L33.0708 66.7175C33.3777 65.4387 34.0938 64.6373 35.2192 64.3645C35.492 64.2963 37.163 64.2452 38.9362 64.2281L42.1247 64.2111V65.7456ZM12.8826 75.5669C16.4463 76.3853 19.396 77.0844 19.4472 77.1185C19.4813 77.1526 19.3619 77.4595 19.1914 77.8176C18.6288 78.8747 17.1624 80.2047 15.9177 80.8015C14.8264 81.313 14.6389 81.3471 12.8826 81.3471C11.1264 81.3471 10.9389 81.313 9.86466 80.8015C8.44944 80.1365 7.20474 78.9259 6.5227 77.5789C6.02823 76.5729 5.63606 75.1577 5.63606 74.3222C5.63606 73.9641 5.70427 73.913 6.02823 73.9812C6.23284 74.0323 9.31903 74.7484 12.8826 75.5669ZM71.2134 76.1807C70.9917 77.3402 70.0369 78.9429 68.9627 80.0171C65.6719 83.2568 60.6419 83.2568 57.3852 79.983C56.311 78.9259 55.3732 77.3061 55.1515 76.1807L55.0492 75.6351H63.1825H71.3327L71.2134 76.1807Z" fill="#336633"/>
<mask id="mask0_4372_522" style="mask-type:alpha" maskUnits="userSpaceOnUse" x="0" y="2" width="88" height="84">
<path d="M40.0786 2.60658C39.1579 2.76003 37.3846 3.39092 36.498 3.90244C35.9865 4.17525 34.9464 5.04485 34.1961 5.79508C32.1671 7.84117 31.1099 10.2112 31.0076 12.9053C30.9394 14.3375 31.2463 14.7638 32.3035 14.7638H33.0026L33.0196 16.3325C33.0537 18.8901 33.8722 20.8339 35.6625 22.6242C36.5832 23.5449 38.7316 24.8238 39.3796 24.8238C39.9763 24.8238 40.1127 25.0795 39.9252 25.8127C39.8058 26.2049 39.6694 27.4155 39.5842 28.5238L39.4307 30.5358L38.51 31.3542C38.0155 31.8146 37.2994 32.4455 36.9242 32.7524L36.2422 33.315L32.3205 33.622L28.3989 33.9118L23.4371 32.2749C20.709 31.3713 18.3048 30.621 18.1002 30.621C17.4523 30.621 16.702 31.1325 16.4463 31.7293C16.2587 32.1726 16.2075 33.2127 16.2075 36.1455C16.2075 40.7151 16.2075 40.698 17.8956 40.8174C18.4583 40.8515 18.9357 40.9367 18.9357 41.0049C18.9357 41.0561 18.4412 42.8294 17.8274 44.9266C17.2135 47.0409 16.7191 49.0018 16.7191 49.3087C16.7191 49.7008 16.8555 49.9566 17.1624 50.2124C17.7421 50.6727 18.1343 50.6557 18.6629 50.1783C19.0039 49.8884 19.3108 49.0018 20.2145 45.8815C20.8283 43.716 21.4251 41.704 21.5103 41.3971L21.6979 40.8515H23.4712C24.4431 40.8515 25.2445 40.8856 25.2445 40.9197C25.2445 40.9708 24.9717 41.9427 24.6477 43.0851C22.4481 50.6898 22.397 58.0216 24.4772 65.2341C25.0569 67.2632 26.5915 71.5088 27.0518 72.4295C27.1883 72.6853 27.2906 72.924 27.2906 72.9922C27.2906 73.0434 26.779 73.0775 26.1311 73.0775H24.9887L20.385 67.9281C17.8444 65.0977 15.7131 62.6935 15.6449 62.5571C15.5596 62.4207 15.9177 60.8862 16.5315 58.7037C17.1112 56.7087 17.5716 54.9866 17.5716 54.8672C17.5716 54.458 16.7532 53.8101 16.2417 53.8101C15.4062 53.8101 15.1163 54.3557 14.1615 57.7318C13.667 59.4709 13.2066 61.0226 13.1043 61.176C12.985 61.4147 12.7462 61.4829 12.0472 61.4829C10.7342 61.4829 8.65405 62.0627 7.00013 62.8811C5.82362 63.4608 5.2439 63.9042 3.91394 65.2341C2.54987 66.5982 2.1577 67.1097 1.50978 68.4226C1.06645 69.2751 0.623134 70.4175 0.503779 70.9461C0.31622 71.8157 0.31622 71.9351 0.640185 72.3613C0.895947 72.7024 1.25401 72.8899 2.03835 73.0604L3.07845 73.2991V74.1687C3.0955 78.6019 6.23284 82.643 10.4955 83.7342C14.8094 84.8255 19.6177 82.66 21.5444 78.7383C22.0048 77.8346 22.1412 77.6812 22.4311 77.7664C22.6186 77.8176 23.1984 77.9028 23.7099 77.971C24.5454 78.0392 24.6818 78.0051 25.0228 77.6641C25.2104 77.4425 25.4491 76.9139 25.5343 76.4876L25.6878 75.7203H39.0385H52.4064L52.628 76.6581C53.3783 79.6591 55.629 82.4554 58.323 83.8024C61.5626 85.3881 64.7852 85.4052 67.9737 83.8365C70.8724 82.3872 72.9867 79.7102 73.8392 76.3512L74.0268 75.6351H75.0157C75.8682 75.6351 76.0728 75.5669 76.465 75.1918C76.8401 74.7996 76.9083 74.595 76.9083 73.6913C76.9083 73.1286 76.789 72.1567 76.6696 71.5429C76.5162 70.8097 76.4821 70.1447 76.5673 69.5821C77.1982 65.6604 76.7378 61.4147 75.3908 58.4138L75.0498 57.6465L75.5443 57.135C76.3798 56.2654 76.5673 55.5834 76.5673 53.3156V51.2695L80.4549 51.2184L84.3254 51.1672L85.2632 50.6386C86.2863 50.0589 87.19 48.9165 87.4798 47.8253C87.5992 47.399 87.6503 44.2446 87.6162 38.7713C87.5651 30.4676 87.5651 30.3482 87.19 29.6662C86.7125 28.7625 85.9282 27.9781 85.0245 27.5007C84.3254 27.1256 84.2743 27.1256 75.6295 27.1256H66.9336L66.0129 27.6371C65.058 28.1657 64.2055 29.1376 63.8304 30.1606C63.694 30.5528 63.6258 33.2639 63.6258 39.692L63.6087 48.6948H60.8124H57.999L58.1695 48.1492C58.2548 47.8423 58.323 46.3589 58.323 44.8584C58.323 35.3782 55.6119 27.5007 50.8377 23.0675C49.61 21.9422 49.593 21.9251 49.8658 21.5329C51.5197 19.2822 52.2188 17.5942 52.5428 15.1048C52.7474 13.3656 52.611 11.8652 52.0824 10.1601C50.94 6.49416 47.7003 3.51028 44.0515 2.74299C42.9602 2.50428 41.0505 2.43607 40.0786 2.60658ZM43.7105 5.30061C47.0524 6.1702 49.5077 8.98357 49.9851 12.4619C50.2239 14.167 49.8999 16.2984 49.1497 17.8841C48.587 19.1117 47.0865 20.8168 46.0805 21.3795L45.3814 21.7717L45.3303 17.9693C45.2791 13.7066 45.1768 13.3315 44.0003 12.6324C43.4376 12.3085 43.0625 12.2914 38.4929 12.2403L33.5993 12.1891L33.7016 11.7288C34.827 7.03979 39.3114 4.1582 43.7105 5.30061ZM42.7215 18.6855V22.5219L41.528 22.5048C38.7828 22.4878 36.4639 20.544 35.7136 17.6795C35.4749 16.6905 35.492 15.3265 35.7648 14.8831C35.7989 14.8149 37.3846 14.7808 39.2773 14.7979L42.7215 14.849V18.6855ZM49.5418 25.4205C52.9861 28.8307 55.1686 34.6621 55.6972 41.8404L55.8165 43.4091L49.951 43.375L44.1026 43.3239L43.6423 41.6529C43.3865 40.7321 43.1307 39.692 43.0796 39.351L42.9773 38.7201L45.0063 37.3902C48.3142 35.2418 49.2179 34.0823 49.1838 31.9851C49.1497 28.9159 46.1999 26.8528 43.233 27.8588C42.6704 28.0463 42.1929 28.1828 42.1588 28.1487C42.0906 28.0805 42.6192 25.2841 42.7215 25.1989C42.7556 25.1648 43.2671 25.0454 43.881 24.909C44.4948 24.7896 45.5178 24.4486 46.1487 24.1758C47.2741 23.7154 47.3423 23.6984 47.8368 23.9542C48.1096 24.1076 48.8769 24.7556 49.5418 25.4205ZM84.4448 30.2459C84.9904 30.7915 85.0075 30.8427 85.0586 32.4966L85.1268 34.2017H75.6466H66.1663V32.6501C66.1663 31.4906 66.2345 30.9791 66.4562 30.604C67.053 29.598 67.0018 29.598 75.8341 29.6491L83.8992 29.6832L84.4448 30.2459ZM46.0635 30.7233C46.9672 31.5929 46.8308 32.7353 45.6884 33.7925C45.3644 34.0823 43.7275 35.2077 42.0224 36.2989L38.9533 38.2939H36.4468H33.9404V37.1856C33.9404 36.5717 33.9915 36.0773 34.0768 36.0773C34.145 36.0773 34.9123 35.992 35.7818 35.9068L37.3676 35.7533L40.215 33.298C41.7837 31.951 43.3353 30.6722 43.6593 30.4676C44.4436 29.9731 45.3814 30.0754 46.0635 30.7233ZM22.2435 34.5427C23.9145 35.1054 25.3127 35.5828 25.3638 35.6169C25.3979 35.651 25.2956 35.9579 25.1592 36.2989C25.0228 36.6399 24.9034 37.2367 24.9034 37.6118V38.2939H21.8343H18.7652V35.9068C18.7652 34.0823 18.8163 33.5197 18.9868 33.5197C19.1062 33.5197 20.5725 33.98 22.2435 34.5427ZM31.2975 37.2708V38.2086H29.5242C27.5804 38.2086 27.3076 38.0722 27.5122 37.2367C27.6486 36.6911 27.9214 36.5717 29.4219 36.4183C31.3486 36.2137 31.2975 36.1966 31.2975 37.2708ZM85.0927 38.1234V39.4874H75.6295H66.1663V38.1234V36.7593H75.6295H85.0927V38.1234ZM41.1187 42.028L41.545 43.7331L40.1468 44.4151C37.7256 45.6257 36.0717 47.8423 35.2874 50.9626C34.9805 52.1562 34.9123 53.0599 34.8441 57.0668L34.7588 61.7728L33.8551 62.1479C32.0648 62.8811 30.9565 64.2963 30.5132 66.3936L30.3256 67.2973L29.0468 67.2461L27.768 67.195L27.1883 65.3194C26.0459 61.5852 25.5855 58.482 25.5855 54.5262C25.5855 50.3829 26.1823 46.6147 27.4611 42.5054L27.9896 40.8515H33.821C38.5611 40.8344 39.7376 40.8003 40.0786 40.5957C40.3174 40.4593 40.539 40.357 40.5902 40.34C40.6413 40.34 40.88 41.1073 41.1187 42.028ZM85.0586 44.7732L85.0075 47.5013L84.4448 48.0469L83.8992 48.6096L75.0328 48.6607L66.1663 48.7119V45.3699V42.045H75.6466H85.1098L85.0586 44.7732ZM55.7654 46.6147C55.7654 47.6206 55.2879 48.9847 54.7253 49.6326C53.7363 50.7409 52.8156 50.9456 48.263 51.0649C44.4777 51.1672 44.222 51.1843 43.6252 51.5594C43.2501 51.7981 42.8409 52.2585 42.6022 52.7529C42.227 53.5032 42.21 53.776 42.1588 57.5954L42.1077 61.6534H39.7206H37.3505V58.0046C37.3505 55.9926 37.4358 53.7589 37.5381 53.0428C38.0496 49.3428 39.5671 47.1432 42.1759 46.3248C43.1478 46.0179 43.7616 45.9838 49.5077 45.9838L55.7654 45.9667V46.6147ZM74.0097 53.1792C74.0097 54.458 73.9415 55.1741 73.8051 55.3106C73.6516 55.464 71.9295 55.5152 67.0871 55.5152C62.9778 55.5152 60.3861 55.5834 60.0963 55.6857C59.1585 56.0437 58.9198 56.8451 59.5336 57.6295L59.8746 58.0728H66.0981H72.3046L72.6456 58.6184C73.4641 59.9654 74.0609 62.182 74.2655 64.6373L74.3848 66.0014L73.43 64.9442C71.6396 62.9664 69.065 61.3806 66.5926 60.7327C65.0921 60.3235 62.5004 60.2041 60.9318 60.4599C54.8105 61.4488 50.275 66.0696 49.2008 72.4295L49.0985 73.0775H39.5842H30.0698L29.456 71.5429C29.115 70.7074 28.8251 69.9742 28.8251 69.9231C28.8251 69.8719 31.9795 69.8378 35.8159 69.8378C43.4376 69.8378 43.6764 69.8037 44.2902 68.883C44.563 68.4567 44.5971 67.894 44.6483 63.2392L44.6994 58.0728H50.0534C55.3902 58.0728 55.4073 58.0728 55.6631 57.6977C56.0552 57.152 56.0041 56.3166 55.5778 55.9244C55.2368 55.6175 54.8446 55.6004 49.951 55.5493L44.6824 55.4981V54.8502C44.6824 53.6737 44.6824 53.6737 48.7745 53.5884C50.7865 53.5373 52.7815 53.4179 53.1907 53.2986C54.2649 53.0257 55.6801 52.3096 56.2087 51.7469L56.6861 51.2525H65.3479H74.0097V53.1792ZM65.3991 63.1028C66.8654 63.4097 69.0309 64.4327 70.2074 65.3876C71.2475 66.2231 72.4751 67.8088 73.1913 69.2069C73.6005 70.0424 74.3507 72.4295 74.3507 72.9411C74.3507 73.0093 69.2525 73.0775 63.029 73.0775H51.7243L51.8778 72.1908C52.4916 68.7977 54.9128 65.6092 58.0331 64.0576C60.3691 62.8982 62.8926 62.5742 65.3991 63.1028ZM18.2877 69.4286C20.9477 72.3784 23.1472 74.919 23.1813 75.0724C23.2154 75.26 23.1472 75.3111 22.9256 75.26C22.738 75.2088 18.3048 74.1858 13.0532 72.9922C7.80151 71.7816 3.45356 70.7586 3.36831 70.6904C3.07845 70.4516 4.39136 68.3544 5.63606 67.0926C7.5628 65.1148 9.88171 64.0747 12.32 64.0576L13.4624 64.0406L18.2877 69.4286ZM42.1247 65.7456V67.2802H37.5381H32.9514L33.0708 66.7175C33.3777 65.4387 34.0938 64.6373 35.2192 64.3645C35.492 64.2963 37.163 64.2452 38.9362 64.2281L42.1247 64.2111V65.7456ZM12.8826 75.5669C16.4463 76.3853 19.396 77.0844 19.4472 77.1185C19.4813 77.1526 19.3619 77.4595 19.1914 77.8176C18.6288 78.8747 17.1624 80.2047 15.9177 80.8015C14.8264 81.313 14.6389 81.3471 12.8826 81.3471C11.1264 81.3471 10.9389 81.313 9.86466 80.8015C8.44944 80.1365 7.20474 78.9259 6.5227 77.5789C6.02823 76.5729 5.63606 75.1577 5.63606 74.3222C5.63606 73.9641 5.70427 73.913 6.02823 73.9812C6.23284 74.0323 9.31903 74.7484 12.8826 75.5669ZM71.2134 76.1807C70.9917 77.3402 70.0369 78.9429 68.9627 80.0171C65.6719 83.2568 60.6419 83.2568 57.3852 79.983C56.311 78.9259 55.3732 77.3061 55.1515 76.1807L55.0492 75.6351H63.1825H71.3327L71.2134 76.1807Z" fill="#B02A31"/>
</mask>
<g mask="url(#mask0_4372_522)">
<path d="M63.606 22.1553H90.281V51.2553H63.606V22.1553Z" fill="#336633"/>
</g>
</g>
<defs>
<clipPath id="clip0_4372_522">
<rect width="87.3" height="87.3" fill="white" transform="translate(0.350098 0.100098)"/>
</clipPath>
</defs>
</svg>
