<svg width="78" height="79" viewBox="0 0 78 79" fill="none" xmlns="http://www.w3.org/2000/svg">
<g clip-path="url(#clip0_4372_5451)">
<path d="M5.79285 3.8159L5.35332 4.25543V6.99871V9.742L3.41332 17.5778L1.45816 25.4287L1.5491 27.5506C1.64004 29.5057 1.68551 29.7482 2.12504 30.6879C2.67066 31.8398 3.76191 33.0371 4.73191 33.5221L5.35332 33.8404V50.967V68.0936H3.15566C1.00348 68.0936 0.927695 68.1087 0.579102 68.4725C0.200195 68.8362 0.200195 68.8514 0.200195 71.8826V74.9442L0.639727 75.3837L1.07926 75.8232H39.0002H76.9211L77.3607 75.3837L77.8002 74.9442V71.8826C77.8002 68.8514 77.8002 68.8362 77.4213 68.4725C77.0727 68.1087 76.9969 68.0936 74.8447 68.0936H72.6471V50.9973V33.9011L73.2988 33.5373C74.2839 32.9765 75.2691 31.8853 75.8299 30.7486C76.33 29.7482 76.3604 29.5967 76.4513 27.5657L76.5422 25.4287L74.5871 17.5778L72.6471 9.742V6.99871V4.25543L72.2075 3.8159L71.768 3.37637H39.0002H6.23238L5.79285 3.8159ZM70.0705 7.24121V8.5295H39.0002H7.92988V7.24121V5.95293H39.0002H70.0705V7.24121ZM14.1439 11.2576C14.1439 11.4395 12.2343 23.034 12.0827 23.7161L11.9918 24.1404H8.20269C5.23207 24.1404 4.42879 24.095 4.47426 23.9434C4.51973 23.8525 5.26238 20.9121 6.12629 17.4262L7.70254 11.1061H10.9157C13.0679 11.1061 14.1439 11.1667 14.1439 11.2576ZM23.3286 11.7426C23.2832 12.1064 23.0255 14.9557 22.783 18.0779C22.5254 21.2001 22.2829 23.8525 22.2525 23.9434C22.2071 24.095 21.3129 24.1404 18.4635 24.1404C14.826 24.1404 14.7502 24.1404 14.7502 23.8373C14.7502 23.5039 16.6902 11.6214 16.7963 11.2879C16.8418 11.1515 17.645 11.1061 20.1307 11.1061H23.4044L23.3286 11.7426ZM32.483 17.6232V24.1404H28.6939C25.7688 24.1404 24.9049 24.095 24.9049 23.9434C24.9049 23.8525 25.1474 20.9273 25.4354 17.4717C25.7233 14.0161 25.9658 11.1667 25.9658 11.1364C25.9658 11.1212 27.436 11.1061 29.2244 11.1061H32.483V17.6232ZM42.865 17.6232V24.0646H39.0002H35.1353L35.0899 17.7748C35.0747 14.3192 35.0899 11.394 35.1353 11.2879C35.1808 11.1364 36.0447 11.1061 39.0305 11.1364L42.865 11.1818V17.6232ZM52.0346 11.2122C52.0346 11.2879 52.2771 14.1676 52.565 17.6232C52.853 21.0789 53.0955 23.9586 53.0955 24.0192C53.0955 24.095 51.398 24.1404 49.3064 24.1404H45.5174V17.6232V11.1061H48.776C50.5644 11.1061 52.0346 11.1515 52.0346 11.2122ZM62.2196 17.2443C62.7652 20.5787 63.235 23.4887 63.235 23.7161L63.2502 24.1404H59.5369C56.7027 24.1404 55.7933 24.095 55.7479 23.9434C55.7024 23.8525 55.475 21.2759 55.2174 18.2295C54.9749 15.1831 54.7324 12.3337 54.6718 11.8942L54.596 11.1061L57.8849 11.1364L61.1889 11.1818L62.2196 17.2443ZM71.8741 17.4262C72.738 20.9121 73.4807 23.8525 73.5261 23.9434C73.5716 24.095 72.7683 24.1404 69.7977 24.1404H66.0086L65.9177 23.7161C65.7661 23.034 63.8564 11.4395 63.8564 11.2576C63.8564 11.1667 64.9325 11.1061 67.0847 11.1061H70.2979L71.8741 17.4262ZM11.8705 27.5203C11.8705 29.5361 10.7793 31.1578 9.08176 31.6428C7.39941 32.1278 5.58066 31.4457 4.67129 29.9907C4.27723 29.339 4.2166 29.0662 4.15598 27.975L4.11051 26.717H7.99051H11.8705V27.5203ZM22.1464 27.884C22.0252 29.8543 21.0552 31.1578 19.3577 31.6579C16.8114 32.4006 14.4622 30.5212 14.4471 27.7325V26.717H18.3271H22.2222L22.1464 27.884ZM32.483 27.8082C32.483 29.0814 32.1799 29.8695 31.4221 30.6273C29.8458 32.2187 27.5269 32.2339 25.9658 30.6728C25.1322 29.8392 24.7533 28.854 24.7533 27.5203V26.717H28.6182H32.483V27.8082ZM42.7893 27.884C42.7893 28.9146 42.7286 29.1723 42.3346 29.8695C40.8189 32.4915 37.1814 32.4915 35.6658 29.8695C35.2718 29.1723 35.2111 28.9146 35.2111 27.884V26.717H39.0002H42.7893V27.884ZM53.2471 27.5203C53.2471 28.854 52.8682 29.8392 52.0346 30.6728C50.4735 32.2339 48.1546 32.2187 46.5783 30.6273C45.8205 29.8695 45.5174 29.0814 45.5174 27.8082V26.717H49.3822H53.2471V27.5203ZM63.5533 27.7325C63.5382 30.5212 61.1889 32.4006 58.6427 31.6579C56.9149 31.1578 55.8236 29.627 55.8236 27.7325V26.717H59.6885H63.5533V27.7325ZM73.8596 27.7779C73.8596 29.4451 73.223 30.597 71.9347 31.3093C70.313 32.1732 68.6155 31.9459 67.3424 30.6728C66.5088 29.8392 66.1299 28.854 66.1299 27.5203V26.717H69.9947H73.8596V27.7779ZM15.4322 33.704C15.9324 33.9465 16.766 34.2345 17.2964 34.3254C19.1607 34.674 21.4189 33.9465 22.7679 32.5673L23.4499 31.8853L24.2532 32.6431C25.1777 33.5222 26.3144 34.0829 27.633 34.3254C29.4821 34.674 31.71 33.9768 33.1044 32.6128L33.8319 31.9156L34.2563 32.3703C35.0596 33.219 36.3782 33.9617 37.6058 34.2345C39.7277 34.7043 41.7889 34.1436 43.4258 32.6431L44.1988 31.9307L44.8505 32.5673C46.1994 33.9314 48.5335 34.674 50.3674 34.3254C51.686 34.0829 52.8227 33.5222 53.7472 32.6431L54.5505 31.8853L55.2325 32.5673C56.051 33.4009 57.3847 34.0829 58.673 34.3254C60.5221 34.674 62.8107 33.9314 64.1596 32.5673L64.8264 31.9004L65.66 32.6582C66.6755 33.5828 67.7364 34.1132 69.0854 34.3254L70.0705 34.4921V51.2853V68.0936H68.7822H67.4939L67.4636 54.2104L67.4182 40.3273L66.9938 39.9636L66.5694 39.5998H59.6885H52.8075L52.3832 39.9636L51.9588 40.3273L51.9133 54.2104L51.883 68.0936H29.9064H7.92988V51.2853V34.4921L8.94535 34.3254C10.2639 34.0981 11.628 33.4312 12.4616 32.5673L13.1436 31.8701L13.8257 32.5673C14.2046 32.9462 14.9321 33.4464 15.4322 33.704ZM64.8871 55.0895L64.8416 68.0178H59.6885H54.5354L54.4899 55.0895L54.4596 42.1764H59.6885H64.9174L64.8871 55.0895ZM75.2236 71.9584V73.2467H39.0002H2.77676V71.9584V70.6701H39.0002H75.2236V71.9584Z" fill="#336633"/>
<path d="M11.0061 39.9634L10.5817 40.3272L10.5363 51.0275C10.4908 63.0009 10.4453 62.4704 11.5366 62.7887C11.9306 62.91 17.5384 62.9403 30.3152 62.91L48.5178 62.8645L48.9119 62.5007L49.3059 62.137V51.2397V40.3423L48.927 39.9786L48.5633 39.5997H29.9969H11.4305L11.0061 39.9634ZM46.7294 51.27V60.3637L29.9514 60.3334L13.1583 60.2879L13.1128 51.2245L13.0825 42.1762H29.9059H46.7294V51.27Z" fill="#336633"/>
<path d="M27.0573 49.6483L21.2676 55.438L22.2224 56.3928L23.1621 57.3325L28.967 51.5277L34.7566 45.738L33.8018 44.7831L32.8621 43.8435L27.0573 49.6483Z" fill="#336633"/>
<path d="M21.222 47.7537L18.6909 50.2848L19.6003 51.1941L20.5097 52.1035L23.0862 49.527L25.6628 46.9504L24.7989 46.0865C24.3139 45.6015 23.8895 45.2074 23.844 45.2074C23.7986 45.2074 22.6164 46.3441 21.222 47.7537Z" fill="#336633"/>
<path d="M32.8617 52.9372L30.2852 55.5138L31.1945 56.4231L32.1039 57.3325L34.7108 54.7256L37.3328 52.1036L36.4689 51.2397C35.9839 50.7547 35.5595 50.3606 35.5141 50.3606C35.4686 50.3606 34.2713 51.5125 32.8617 52.9372Z" fill="#336633"/>
</g>
<defs>
<clipPath id="clip0_4372_5451">
<rect width="77.6" height="77.6" fill="white" transform="translate(0.200195 0.799805)"/>
</clipPath>
</defs>
</svg>
